<?xml version="1.0" standalone="no"?>
<!DOCTYPE svg PUBLIC "-//W3C//DTD SVG 20010904//EN"
 "http://www.w3.org/TR/2001/REC-SVG-20010904/DTD/svg10.dtd">
<svg version="1.0" xmlns="http://www.w3.org/2000/svg"
 width="364.000000pt" height="187.000000pt" viewBox="0 0 364.000000 187.000000"
 preserveAspectRatio="xMidYMid meet">

<g transform="translate(0.000000,187.000000) scale(0.100000,-0.100000)"
fill="#000000" stroke="none">
<path d="M320 1065 l0 -505 65 0 65 0 1 203 0 202 102 -202 102 -203 68 0 c64
0 68 1 62 20 -3 11 -67 144 -141 296 -74 152 -134 278 -134 280 0 5 169 295
222 382 11 17 16 32 11 32 -4 0 -71 -108 -148 -240 l-140 -239 -3 239 -2 240
-65 0 -65 0 0 -505z"/>
<path d="M1290 1163 c1 -439 2 -449 54 -518 41 -53 98 -79 177 -79 57 0 74 4
115 30 30 18 60 48 79 78 l30 49 3 405 c2 289 0 408 -8 418 -10 10 -22 2 -65
-44 l-54 -57 -1 -370 c0 -224 -4 -385 -11 -407 -32 -117 -144 -122 -178 -9 -7
26 -11 175 -11 475 l0 436 -65 0 -65 0 0 -407z"/>
<path d="M2252 1063 l3 -508 5 484 5 483 219 -473 c120 -261 223 -478 227
-484 5 -5 8 219 7 500 l-3 510 -5 -350 -5 -350 -160 345 -161 345 -67 3 -67 3
2 -508z"/>
<path d="M3220 1070 l0 -501 60 41 60 41 0 459 0 460 -60 0 -60 0 0 -500z"/>
<path d="M2670 290 c0 -56 3 -70 15 -70 12 0 15 14 15 70 0 56 -3 70 -15 70
-12 0 -15 -14 -15 -70z"/>
<path d="M344 324 c-34 -50 24 -122 77 -97 23 11 22 12 -7 6 -25 -4 -35 0 -53
22 -27 35 -26 40 4 70 16 17 19 25 10 25 -8 0 -22 -12 -31 -26z"/>
<path d="M420 340 c20 -13 33 -13 25 0 -3 6 -14 10 -23 10 -15 0 -15 -2 -2
-10z"/>
<path d="M544 326 c-21 -33 -15 -65 18 -89 35 -26 75 -15 98 26 13 24 13 30 0
54 -9 16 -24 29 -33 31 -14 3 -12 -2 8 -22 31 -31 31 -38 1 -73 -21 -24 -27
-26 -52 -18 -18 6 -33 21 -39 39 -8 25 -6 31 18 52 19 16 23 24 13 24 -9 0
-23 -11 -32 -24z"/>
<path d="M772 285 l1 -70 6 55 6 54 43 -53 c23 -30 42 -47 42 -39 0 8 -22 39
-50 69 l-50 54 2 -70z"/>
<path d="M992 338 c-7 -7 -12 -21 -11 -32 0 -20 1 -20 9 1 5 12 17 26 27 32
14 8 15 10 3 11 -9 0 -21 -5 -28 -12z"/>
<path d="M1060 340 c20 -13 33 -13 25 0 -3 6 -14 10 -23 10 -15 0 -15 -2 -2
-10z"/>
<path d="M1192 288 l-2 -68 48 2 47 1 -42 4 -42 4 -4 62 -3 62 -2 -67z"/>
<path d="M1380 283 c0 -36 3 -64 6 -60 9 8 10 127 2 127 -5 0 -8 -30 -8 -67z"/>
<path d="M1448 340 c12 -5 22 -18 22 -30 0 -12 -10 -25 -22 -30 -18 -8 -19 -9
-4 -7 10 1 24 10 30 20 14 21 -2 51 -30 54 -15 2 -14 1 4 -7z"/>
<path d="M1599 283 c5 -69 8 -65 13 20 2 27 -1 47 -7 47 -6 0 -8 -26 -6 -67z"/>
<path d="M1860 285 l0 -65 38 2 c36 1 36 1 5 5 l-33 4 3 60 c2 32 -1 59 -5 59
-4 0 -8 -29 -8 -65z"/>
<path d="M1940 343 c14 -7 13 -40 -2 -46 -9 -3 -7 -9 7 -20 16 -13 17 -17 6
-31 -9 -11 -10 -16 -2 -16 16 0 25 26 16 48 -4 9 -8 28 -9 41 0 13 -7 25 -14
27 -7 1 -8 0 -2 -3z"/>
<path d="M2076 334 c-18 -18 -21 -56 -6 -84 14 -27 65 -35 95 -16 42 28 31
116 -14 116 -11 0 -9 -5 7 -16 52 -36 4 -122 -54 -96 -13 7 -27 19 -30 27 -10
25 5 65 29 75 16 6 17 9 5 9 -9 1 -24 -6 -32 -15z"/>
<path d="M2294 301 c3 -56 21 -81 57 -81 33 0 49 28 48 83 l-2 52 -6 -53 c-12
-101 -76 -97 -93 7 l-7 46 3 -54z"/>
<path d="M2531 283 c2 -70 6 -63 11 20 2 26 0 47 -4 47 -5 0 -7 -30 -7 -67z"/>
<path d="M2806 328 c-21 -29 -20 -61 2 -80 41 -37 122 -63 122 -39 0 4 -11 6
-25 3 -14 -2 -25 -2 -25 1 0 4 11 17 25 31 14 14 25 33 25 43 0 25 -28 63 -45
63 -9 0 -6 -9 10 -25 30 -29 31 -35 4 -69 -24 -31 -52 -33 -79 -6 -26 26 -25
46 5 75 16 16 19 25 10 25 -8 0 -21 -10 -29 -22z"/>
<path d="M3032 298 c-2 -49 1 -59 19 -68 30 -16 68 -4 75 24 3 12 4 40 1 62
-3 34 -4 32 -5 -14 -2 -45 -5 -54 -27 -64 -36 -16 -53 3 -58 65 l-3 52 -2 -57z"/>
<path d="M3240 285 l0 -65 48 2 47 1 -42 4 -43 4 3 60 c2 32 -1 59 -5 59 -4 0
-8 -29 -8 -65z"/>
<path d="M980 265 c0 -17 38 -45 60 -45 9 0 25 7 36 16 18 15 18 15 -3 5 -32
-16 -41 -14 -68 14 -16 16 -25 19 -25 10z"/>
</g>
</svg>
